<svg width="7" height="10" viewBox="0 0 7 10" fill="none" xmlns="http://www.w3.org/2000/svg">
<path d="M6.26 6.36C6.26 6.872 6.132 7.344 5.876 7.776C5.628 8.208 5.288 8.552 4.856 8.808C4.424 9.056 3.952 9.18 3.44 9.18C2.928 9.18 2.456 9.056 2.024 8.808C1.592 8.552 1.248 8.208 0.992 7.776C0.744 7.344 0.62 6.872 0.62 6.36V3.3C0.62 2.788 0.744 2.316 0.992 1.884C1.248 1.452 1.592 1.112 2.024 0.864C2.456 0.608 2.928 0.48 3.44 0.48C3.952 0.48 4.424 0.608 4.856 0.864C5.288 1.112 5.628 1.452 5.876 1.884C6.132 2.316 6.26 2.788 6.26 3.3V6.36ZM1.052 6.36C1.052 6.632 1.104 6.912 1.208 7.2L5.444 2.028C5.228 1.692 4.944 1.424 4.592 1.224C4.24 1.024 3.856 0.924 3.44 0.924C3.008 0.924 2.608 1.032 2.24 1.248C1.88 1.456 1.592 1.744 1.376 2.112C1.16 2.472 1.052 2.868 1.052 3.3V6.36ZM5.828 3.3C5.828 3.028 5.776 2.748 5.672 2.46L1.436 7.632C1.652 7.976 1.936 8.248 2.288 8.448C2.64 8.648 3.024 8.748 3.44 8.748C3.872 8.748 4.268 8.64 4.628 8.424C4.996 8.208 5.288 7.92 5.504 7.56C5.72 7.192 5.828 6.792 5.828 6.36V3.3Z" fill="black"/>
</svg>
